<?xml version="1.0" encoding="UTF-8"?>
<svg id="a" xmlns="http://www.w3.org/2000/svg" version="1.1" viewBox="0 0 600 74">
  <!-- Generator: Adobe Illustrator 30.3.0, SVG Export Plug-In . SVG Version: 2.1.3 Build 182)  -->
  <path d="M159.08,0h41.6c3.56,1.24,7.22,3.92,7.41,8.03.36,7,.22,14.03.07,21.04.08,3.14-1.98,5.6-3.78,7.93,1.81,2.34,3.88,4.81,3.79,7.97.14,6.99.29,14.02-.09,21.01-.21,3.95-3.71,6.47-6.97,8.02h-41.99C158.89,49.34,158.97,24.67,159.08,0ZM171.5,12.75c0,6.02-.04,12.03.06,18.04,6.46-.1,12.93,0,19.4-.02,1.69-.03,4.13,0,4.6-2.09.42-4.26.24-8.56.12-12.83.13-1.55-.96-3.29-2.71-3.05-7.15-.19-14.31.03-21.47-.05h0ZM171.47,43.3c.05,5.99.03,11.97.04,17.95,7.19-.08,14.38.14,21.57-.06,1.73.2,2.73-1.57,2.6-3.08.13-4.26.29-8.54-.12-12.78-.38-2.11-2.89-2.06-4.53-2.09-6.52-.02-13.04,0-19.56.06Z"/>
  <path d="M239.97,0h34.74c3.98,1.23,7.74,4.48,7.5,8.99.15,17.68-.06,35.36.09,53.04-.08,2.62.1,5.52-1.46,7.78-1.37,2.04-3.68,3.1-5.78,4.19h-34.28c-2.14-.98-4.5-1.9-5.9-3.91-1.78-2.29-1.61-5.34-1.68-8.08.09-16.99.06-33.97,0-50.96.08-2.25,0-4.69,1.31-6.65C235.82,2.39,238.05,1.31,239.97,0ZM247.11,13.01c-1.77,1.05-1.22,3.27-1.39,4.98.06,13.01,0,26.02.02,39.03-.07,1.6.07,4.02,2.18,4.07,6.36.35,12.76.18,19.13.1,2.8.12,3-3.16,2.95-5.2V17.96c.05-2.03-.16-5.29-2.97-5.16-6.63-.01-13.31-.35-19.92.21Z"/>
  <path d="M303.98,0h.47c4.63.28,9.28.3,13.92.2,4.59,7.91,8.95,15.95,13.47,23.9,4.43-7.93,8.92-15.84,13.29-23.8,4.82-.06,9.63-.06,14.45-.04-6.84,12.25-13.69,24.49-20.54,36.74,6.86,12.24,13.69,24.5,20.55,36.74-4.82.02-9.63.02-14.44-.03-4.4-7.96-8.87-15.87-13.31-23.81-4.42,7.91-8.94,15.76-13.22,23.74-4.71.05-9.41.14-14.11.36h-.51c6.82-12.36,13.73-24.68,20.64-37C317.73,24.68,310.84,12.35,303.98,0Z"/>
  <path d="M381.31,0h39.4c4.44,1.68,8.9,5.01,9.52,10.06.68,5.95.08,11.96.3,17.94-.07,4.2.52,8.82-1.84,12.55-1.65,2.76-4.65,4.18-7.31,5.75,3.07,9.15,6.11,18.29,9.15,27.44-4.44.03-8.88.01-13.32-.06-2.95-9.18-6.04-18.31-9.12-27.44-4.77,0-9.55.02-14.33,0-.05,9.25.05,18.5-.07,27.75h-12.35C381.17,49.33,381.24,24.67,381.31,0h0ZM393.75,12.75c0,7-.02,14,.02,21.01,6.39-.03,12.79,0,19.19.02,1.7-.07,4.07.2,4.84-1.78.45-5.01.16-10.06.2-15.09-.09-1.39-.06-3.98-2.02-3.97-7.39-.5-14.82-.04-22.23-.19Z"/>
  <path d="M483.22,0h.47c.33,3.15,1.2,6.2,2.1,9.22,6.47,21.56,12.44,43.27,19.08,64.78h-.5c-4.14-1.24-8.55.04-12.8-.16-1.78-6.11-3.53-12.23-5.33-18.34h-18.63c-1.77,6.16-3.61,12.31-5.3,18.5h-13.15c7.15-24.62,14.36-49.22,21.51-73.84C474.83.01,479.16,1.16,483.22,0h0ZM476.88,23.93c-1.95,6.34-3.73,12.72-5.62,19.07,3.78,0,7.56,0,11.34,0-1.9-6.35-3.54-12.79-5.72-19.06Z"/>
  <path d="M514,0h.37c4.26.24,8.53.3,12.81.27,4,15.61,7.67,31.29,11.71,46.89,4.09-15.59,7.75-31.29,11.73-46.92,4.37,0,8.76,0,13.14.08,3.76,15.7,7.69,31.36,11.68,46.99,3.81-15.7,7.81-31.36,11.64-47.06,4.3,0,8.61,0,12.92.02v.98c-6.16,24.13-12.08,48.32-18.05,72.49-4.37.01-8.73.01-13.08.01-3.96-15.64-7.73-31.32-11.69-46.95-3.9,15.71-8.24,31.35-11.47,47.2h-.5c-4.17-1.19-8.62.03-12.91-.24C526.29,49.15,520.22,24.56,514,0h0Z"/>
  <path d="M48.64,10.59c14.47-3.56,29.49-4.81,44.36-4.22,4.32.01,8.4,3.22,9.03,7.56.95,3.46-1.19,6.52-2.94,9.27,2.37,2.39,5.09,5.16,4.68,8.84-.06,5.55-5.62,8.35-9.63,11.06-27.65,18.1-61.22,26.45-94.14,24.43v-.24c25.71-4.08,50.65-14.01,71.31-29.99,3.77-2.73,7.22-5.88,10.18-9.48-1.42-1.57-2.13-4.25-4.55-4.5-7.28-1.01-14.66-.31-21.97-.06-4.6.32-9.51.56-13.42,3.3-5.03,3.42-9.26,7.85-13.86,11.8,3.05-6.85,6.93-13.3,11.08-19.53,2.38-3.63,5.4-7.3,9.87-8.24Z"/>
</svg>